<mxfile host="app.diagrams.net" modified="2023-04-13T21:05:14.917Z" agent="Mozilla/5.0 (Windows NT 10.0; Win64; x64) AppleWebKit/537.36 (KHTML, like Gecko) Chrome/111.0.0.0 Safari/537.36" version="21.1.7" etag="YeBiJ0JowO3Udol6te0e" type="github">
  <diagram name="Strona-1" id="fPzl1J1sIAi2Sx4Lx70H">
    <mxGraphModel>
      <root>
        <mxCell id="0" />
        <mxCell id="1" parent="0" />
      </root>
    </mxGraphModel>
  </diagram>
</mxfile>
